<?xml version="1.0" standalone="no"?>
<!DOCTYPE svg PUBLIC "-//W3C//DTD SVG 20010904//EN"
 "http://www.w3.org/TR/2001/REC-SVG-20010904/DTD/svg10.dtd">
<svg version="1.0" xmlns="http://www.w3.org/2000/svg"
 width="1024.000000pt" height="1024.000000pt" viewBox="0 0 1024.000000 1024.000000"
 preserveAspectRatio="xMidYMid meet">
<metadata>
Created by potrace 1.11, written by Peter Selinger 2001-2013
</metadata>
<g transform="translate(0.000000,1024.000000) scale(0.100000,-0.100000)"
fill="#000000" stroke="none">
<path d="M4284 9938 c-28 -4 -61 -12 -75 -17 l-24 -9 28 -11 c92 -36 142 -69
195 -129 31 -35 86 -96 122 -136 36 -40 81 -99 100 -132 19 -32 56 -87 82
-121 50 -66 188 -304 213 -369 9 -22 21 -49 27 -61 6 -13 8 -26 4 -30 -3 -4
-49 -8 -102 -10 -70 -2 -103 1 -124 12 -16 8 -45 15 -64 15 -25 0 -39 7 -53
26 -13 18 -30 27 -54 29 -58 4 -149 28 -160 42 -6 7 -22 13 -35 13 -15 0 -24
6 -24 15 0 9 -11 20 -25 25 -14 5 -25 16 -25 24 0 17 -30 36 -56 36 -9 0 -31
11 -48 23 -17 13 -36 26 -42 28 -21 7 -114 116 -114 133 0 9 -4 16 -9 16 -15
0 -44 73 -43 107 1 18 -5 39 -13 47 -8 8 -15 20 -15 26 0 6 -6 21 -14 33 -9
15 -13 53 -12 125 1 96 3 105 25 123 13 10 18 19 12 19 -23 0 -10 21 20 34 95
40 -108 3 -241 -44 -80 -28 -259 -108 -320 -143 -25 -15 -61 -35 -81 -46 -65
-36 -272 -196 -348 -269 -41 -40 -78 -72 -83 -72 -5 0 -26 17 -47 38 -21 20
-45 42 -54 47 -23 16 -161 127 -172 139 -6 6 -31 22 -57 34 -25 13 -48 32 -51
43 -3 13 -14 19 -31 19 -15 0 -52 11 -84 24 -105 43 -173 58 -269 58 -104 0
-129 -10 -149 -59 -14 -33 -11 -73 6 -73 25 0 205 -630 212 -740 2 -30 6 -57
10 -60 3 -3 14 -52 23 -110 13 -76 18 -181 21 -375 3 -330 -15 -535 -48 -535
-7 0 -7 -4 1 -13 8 -10 5 -43 -8 -123 -27 -154 -20 -144 -110 -145 -42 0 -83
-2 -91 -3 -8 -2 -51 -7 -95 -11 -93 -8 -208 -28 -316 -55 -42 -11 -85 -21 -95
-23 -10 -2 -29 -8 -41 -15 -12 -7 -27 -12 -34 -12 -12 0 -89 -32 -119 -50 -8
-5 -51 -30 -95 -55 -84 -49 -137 -84 -170 -115 -11 -10 -32 -23 -47 -29 -16
-6 -28 -18 -28 -28 0 -17 -36 -63 -62 -80 -14 -8 -19 -17 -65 -95 -16 -27 -35
-48 -45 -48 -12 0 -16 -6 -13 -21 6 -28 -13 -62 -29 -56 -7 3 -19 1 -26 -3
-11 -7 -11 -14 -2 -34 9 -20 7 -36 -9 -85 -12 -36 -27 -61 -35 -61 -14 0 -16
-9 -19 -85 -2 -67 -16 -145 -28 -158 -13 -13 -17 -438 -5 -447 15 -11 48 -204
37 -211 -8 -4 -7 -9 3 -15 23 -14 41 -76 26 -86 -10 -6 -8 -8 4 -8 19 0 42
-67 32 -94 -4 -10 -1 -16 8 -16 18 0 63 -93 54 -109 -4 -6 -1 -11 7 -11 7 0
21 -15 30 -32 42 -80 67 -119 115 -179 29 -35 52 -71 52 -79 0 -8 13 -21 29
-28 16 -7 50 -37 76 -67 26 -30 51 -55 57 -55 8 0 93 -63 108 -81 3 -3 39 -26
80 -51 74 -45 75 -46 73 -85 -1 -22 -9 -58 -19 -79 -9 -21 -18 -58 -19 -82 -2
-40 -58 -165 -90 -202 -8 -8 -18 -28 -24 -43 -6 -16 -20 -31 -31 -34 -13 -4
-20 -14 -20 -30 0 -26 -77 -143 -94 -143 -6 0 -21 -18 -34 -41 -13 -22 -80
-98 -149 -169 -122 -125 -162 -158 -149 -125 3 8 0 15 -5 15 -7 0 -9 -9 -6
-21 4 -16 -2 -25 -29 -41 -19 -11 -34 -23 -34 -28 0 -4 -26 -28 -59 -53 -142
-112 -228 -226 -260 -344 -26 -96 -12 -310 25 -389 13 -28 27 -65 30 -82 3
-17 12 -33 19 -36 8 -3 23 -24 34 -48 38 -79 86 -134 245 -286 92 -87 133
-116 206 -147 25 -10 52 -26 61 -36 15 -17 29 -20 134 -34 28 -4 61 -9 75 -11
47 -8 175 -5 235 6 52 9 62 8 73 -7 6 -9 12 -22 13 -27 0 -6 2 -18 4 -26 2 -8
5 -26 8 -40 18 -89 144 -487 185 -585 22 -53 149 -304 161 -319 5 -6 13 -24
16 -39 4 -16 14 -31 22 -34 9 -3 33 -33 55 -67 36 -56 131 -167 213 -249 19
-19 51 -54 70 -77 20 -24 62 -61 93 -83 31 -23 59 -43 62 -46 16 -19 209 -152
255 -177 41 -22 70 -39 75 -45 6 -6 71 -36 190 -89 119 -52 413 -145 495 -156
17 -3 62 -10 100 -16 90 -15 217 -13 335 6 70 12 260 22 560 32 102 3 209 7
238 9 29 2 176 6 325 10 150 3 301 8 337 10 36 2 126 6 200 10 74 3 149 8 165
10 51 7 246 55 330 81 82 26 136 27 240 4 128 -28 575 -31 704 -5 95 19 168
43 231 75 25 13 46 22 48 21 3 -2 70 58 114 104 93 97 201 305 262 506 27 90
38 104 116 157 25 16 70 53 100 81 30 28 65 54 78 57 12 3 22 11 23 18 0 6 45
54 100 106 55 52 145 142 202 200 56 57 119 121 140 142 20 20 37 42 37 47 0
6 11 16 25 23 13 7 37 33 53 58 16 25 73 101 128 170 55 69 114 146 132 172
17 25 35 48 39 50 5 1 29 36 56 75 26 40 51 73 56 73 5 0 13 12 19 28 5 15 39
73 75 129 37 56 75 120 86 141 11 22 27 42 36 45 8 4 15 15 15 26 0 11 4 22 9
25 5 3 27 44 50 91 23 47 45 83 50 80 5 -3 13 9 16 27 4 18 34 85 66 149 33
64 59 119 59 122 0 4 14 29 30 57 17 28 30 57 30 64 0 12 78 211 113 286 8 19
19 51 22 70 4 19 13 46 20 60 7 14 32 92 55 174 23 81 51 174 62 205 10 31 21
70 23 86 2 17 21 116 43 220 22 105 43 214 46 244 4 29 11 83 16 120 5 36 12
93 15 126 3 33 10 83 15 110 5 28 12 100 16 160 3 61 8 128 10 150 6 75 6 800
1 840 -4 22 -11 87 -17 144 -10 91 -37 266 -55 356 -3 17 -12 48 -20 70 -7 22
-16 58 -20 80 -4 22 -14 50 -22 63 -8 13 -20 40 -28 60 -38 107 -187 385 -235
441 -18 20 -42 55 -100 141 -24 36 -55 77 -69 91 -14 14 -34 37 -44 50 -70 94
-318 346 -447 453 -47 39 -91 77 -98 84 -7 6 -16 12 -20 12 -4 0 -30 21 -58
48 -28 26 -77 61 -109 77 -31 17 -68 40 -81 52 -13 12 -63 42 -111 66 -49 25
-131 67 -183 94 -53 28 -107 54 -120 58 -14 4 -65 25 -115 45 -49 21 -137 52
-195 70 -58 17 -141 42 -185 55 -44 14 -96 27 -115 30 -19 3 -62 12 -95 21
-33 8 -73 17 -90 19 -81 10 -124 16 -170 20 -27 3 -63 7 -80 10 -44 6 -263 19
-315 18 -25 0 -79 -3 -120 -6 -41 -4 -111 -9 -155 -13 -78 -5 -109 -9 -150
-18 -167 -38 -185 -40 -210 -20 -13 10 -115 93 -227 184 -111 91 -229 184
-260 207 -32 24 -58 47 -58 53 0 5 -6 10 -14 10 -12 0 -65 38 -118 84 -9 8
-30 22 -47 30 -16 9 -38 26 -48 38 -10 13 -25 24 -33 26 -7 2 -30 16 -51 33
-20 16 -42 29 -48 29 -6 0 -16 9 -23 21 -7 11 -31 28 -53 38 -22 10 -60 33
-85 52 -103 79 -325 175 -462 199 -76 14 -220 18 -284 8z m-692 -1357 c13 -5
32 -18 42 -30 11 -11 24 -21 29 -21 17 0 180 -112 200 -137 10 -13 27 -23 38
-23 11 0 27 -4 37 -9 66 -36 153 -89 184 -113 20 -16 45 -31 56 -33 17 -3 110
-61 122 -75 3 -4 25 -20 50 -38 25 -17 70 -54 100 -81 30 -28 63 -54 73 -57 9
-3 17 -9 17 -14 0 -5 -31 -35 -70 -66 -56 -45 -75 -55 -95 -50 -64 16 -403
194 -417 220 -5 9 -14 16 -20 16 -10 0 -127 76 -138 89 -3 4 -28 23 -56 44
-29 20 -59 48 -68 62 -9 13 -30 32 -47 40 -16 9 -38 24 -48 33 -10 9 -43 41
-74 71 -32 29 -57 58 -57 65 0 6 -18 22 -40 36 -70 43 -62 51 70 78 47 9 74 8
112 -7z m-242 -92 c7 -11 20 -29 31 -40 10 -10 19 -23 19 -27 0 -5 11 -14 25
-20 14 -7 29 -22 34 -35 5 -13 21 -34 35 -47 15 -14 36 -44 47 -66 12 -23 31
-47 43 -54 21 -12 56 -63 109 -159 16 -30 36 -61 44 -70 19 -18 0 -29 -21 -12
-7 6 -20 9 -28 6 -17 -7 -31 8 -58 61 -18 36 -19 37 -20 13 0 -14 8 -33 18
-42 12 -11 17 -30 16 -59 0 -24 3 -47 7 -53 9 -14 22 -95 14 -95 -3 0 -18 9
-33 19 -16 11 -40 18 -59 17 -18 -1 -45 -3 -59 -4 -16 -1 -23 -6 -18 -14 5 -7
3 -8 -7 -2 -8 4 -23 10 -34 11 -70 9 -141 29 -157 45 -10 10 -36 20 -59 22
-23 2 -46 9 -52 15 -6 6 -19 11 -29 11 -10 0 -51 31 -90 68 -40 37 -90 80
-111 96 -21 15 -48 48 -59 72 -28 56 -22 68 92 184 86 88 176 156 252 190 37
17 45 17 70 4 15 -8 32 -24 38 -35z m4235 -363 c17 -9 36 -16 43 -16 20 0 95
-41 109 -59 7 -9 20 -36 29 -61 10 -25 25 -54 34 -65 10 -11 21 -33 24 -49 4
-17 14 -35 21 -40 10 -8 15 -39 16 -113 1 -57 5 -124 10 -150 5 -25 7 -48 6
-50 -2 -2 -21 11 -43 28 -21 17 -79 58 -128 92 -50 33 -108 77 -130 97 -23 21
-79 64 -126 98 -113 80 -144 118 -139 170 2 15 -1 33 -5 41 -6 10 -5 12 2 7 8
-5 10 -2 6 8 -4 10 1 18 12 23 11 4 31 15 45 26 50 36 157 42 214 13z m-611
-195 c3 -5 22 -12 41 -15 19 -4 39 -16 45 -26 6 -11 21 -20 35 -20 28 0 75
-53 100 -114 10 -24 32 -52 50 -65 27 -18 35 -33 49 -91 10 -39 16 -80 14 -92
-2 -19 2 -23 22 -23 18 0 26 6 28 23 5 32 15 27 37 -20 12 -24 30 -47 40 -52
35 -16 90 -113 86 -153 -2 -19 3 -23 27 -23 32 0 50 -17 77 -70 10 -19 28 -47
41 -63 13 -15 21 -34 18 -42 -3 -7 4 -18 15 -25 11 -6 20 -14 19 -18 -2 -11
14 -45 29 -64 17 -20 19 -98 4 -127 -25 -46 -46 -45 -116 6 -52 39 -63 52 -59
69 7 27 -11 40 -24 18 -8 -15 -11 -15 -36 1 -14 10 -26 20 -26 24 0 4 -16 13
-34 19 -19 7 -38 22 -41 32 -4 11 -13 21 -21 21 -8 1 -17 2 -21 3 -23 4 -173
89 -173 98 0 5 -6 8 -13 5 -25 -10 -42 10 -46 56 -1 10 -55 9 -66 -2 -6 -5
-50 6 -108 28 -103 39 -147 67 -92 57 34 -6 61 6 51 23 -5 7 -39 10 -105 7
-53 -3 -103 -1 -110 4 -9 5 -12 18 -9 35 4 20 0 30 -19 42 -23 16 -23 16 -3
30 27 19 25 41 -5 49 -18 4 -25 13 -25 29 0 16 7 25 25 29 22 6 25 12 26 56 1
28 3 55 4 60 1 6 3 19 4 30 1 13 8 20 20 20 12 0 21 9 25 25 4 14 10 24 15 21
13 -9 52 25 49 42 -2 14 7 18 50 20 49 3 52 5 53 30 2 74 32 127 53 93z
m-4299 -811 c28 -6 61 -14 75 -16 90 -17 274 -86 404 -152 l60 -30 -29 -26
c-15 -14 -34 -26 -41 -26 -8 0 -14 -4 -14 -10 0 -5 -20 -21 -45 -36 -25 -14
-48 -32 -53 -38 -4 -7 -43 -39 -87 -71 -44 -33 -86 -65 -93 -72 -7 -7 -33 -25
-58 -39 -24 -14 -44 -30 -44 -35 0 -19 -16 -8 -34 24 -85 148 -151 311 -181
452 -22 106 -24 103 38 94 28 -4 75 -12 102 -19z m4455 -222 c0 -6 -6 -5 -15
2 -8 7 -15 14 -15 16 0 2 7 1 15 -2 8 -4 15 -11 15 -16z m137 -70 c18 -11 33
-24 33 -29 0 -10 -47 9 -71 28 -8 7 -20 13 -26 13 -15 0 -34 25 -26 33 3 4 18
0 31 -9 14 -9 40 -25 59 -36z m669 -56 c-8 -7 -25 8 -37 31 -11 21 -10 21 15
-2 14 -14 24 -26 22 -29z m-566 -17 c23 -17 28 -25 17 -25 -9 0 -17 4 -17 9 0
5 -9 13 -20 16 -11 3 -20 11 -20 16 0 13 2 12 40 -16z m-3440 -389 c0 -19 -23
-36 -38 -27 -7 4 -10 15 -6 24 7 20 44 23 44 3z m20 -72 c0 -8 -4 -12 -10 -9
-5 3 -10 10 -10 16 0 5 5 9 10 9 6 0 10 -7 10 -16z m-841 -122 c57 -45 192
-153 207 -167 6 -6 14 -20 18 -32 5 -15 13 -19 33 -17 50 5 163 -134 163 -201
0 -15 7 -26 21 -30 18 -6 21 -13 16 -46 -3 -27 -14 -46 -31 -60 -32 -25 -49
-42 -73 -72 -43 -55 -110 -69 -328 -71 l-160 -1 -12 25 c-9 20 -27 30 -78 44
-36 11 -65 25 -65 31 0 7 -13 29 -30 50 -16 21 -30 44 -30 51 0 7 -6 11 -13 8
-39 -15 -116 141 -117 238 0 15 -11 44 -25 64 -14 21 -25 51 -25 70 0 29 6 38
43 61 96 61 367 126 420 100 11 -5 40 -25 66 -45z m1361 54 c0 -3 -4 -8 -10
-11 -5 -3 -10 -1 -10 4 0 6 5 11 10 11 6 0 10 -2 10 -4z m22 -38 c-7 -7 -12
-8 -12 -2 0 14 12 26 19 19 2 -3 -1 -11 -7 -17z m-1938 -279 c51 -217 108
-499 161 -804 3 -16 12 -70 20 -120 9 -49 18 -101 20 -115 3 -14 15 -85 26
-159 l22 -133 -32 -30 c-17 -16 -46 -35 -65 -43 -19 -8 -36 -20 -38 -27 -3 -9
-30 -12 -89 -12 -192 2 -393 30 -486 69 -20 8 -43 15 -52 15 -9 0 -49 10 -89
21 l-72 22 4 116 c5 136 14 201 28 198 14 -3 19 36 6 44 -13 8 27 199 45 214
7 6 13 28 14 50 4 51 21 107 39 121 8 6 16 31 18 56 5 64 53 167 82 174 20 5
22 9 13 27 -10 17 -9 19 5 14 19 -7 33 12 16 23 -16 10 14 70 35 70 9 0 15 9
15 23 0 26 28 57 57 62 10 2 20 4 22 4 2 1 -2 7 -8 15 -9 10 -8 16 4 26 12 10
15 10 15 0 0 -13 15 -5 15 8 3 34 19 52 47 52 25 0 28 3 19 14 -9 10 -8 16 4
26 10 9 15 9 15 1 0 -6 7 -11 15 -11 15 0 19 10 16 41 -3 24 90 84 101 66 4
-8 18 -61 32 -118z m2123 -37 c17 -23 18 -29 7 -40 -21 -19 -18 -51 4 -47 9 2
20 4 25 4 4 1 7 8 7 16 0 8 4 15 9 15 19 0 21 -18 3 -40 -12 -15 -29 -21 -60
-22 -24 0 -46 3 -49 6 -9 9 -9 96 0 119 9 25 30 21 54 -11z m-91 -2 c12 -12 8
-90 -5 -103 -5 -5 -16 10 -25 33 -13 33 -14 44 -4 60 15 23 20 24 34 10z
m4124 -666 c0 -11 6 -14 16 -10 46 18 97 -53 110 -149 9 -72 11 -175 4 -175
-4 0 -7 -16 -8 -35 -2 -43 -53 -122 -85 -130 -25 -7 -93 18 -99 36 -3 8 -13 7
-35 -5 -46 -23 -69 -20 -150 20 -111 55 -110 69 14 249 39 55 81 106 94 112
13 7 23 19 21 27 -2 10 5 14 24 13 15 -1 29 4 31 11 3 6 -3 12 -13 12 -16 0
-16 1 -1 18 21 23 77 27 77 6z m-2479 -675 c26 -25 66 -57 90 -70 35 -19 50
-37 76 -89 36 -72 43 -104 45 -196 1 -59 0 -64 -44 -115 -24 -30 -55 -76 -67
-103 -57 -124 -98 -158 -210 -171 -29 -3 -77 -12 -105 -19 -29 -8 -82 -17
-119 -21 l-66 -7 -58 45 c-32 24 -66 54 -76 65 -15 17 -32 20 -115 22 -179 3
-233 8 -258 24 -22 15 -25 15 -42 -2 -26 -26 -53 -31 -109 -20 -76 15 -94 17
-160 17 -51 1 -63 4 -68 20 -3 10 -16 22 -29 25 -12 3 -28 17 -34 30 -8 18
-16 23 -31 19 -12 -3 -21 -12 -21 -19 0 -8 -7 -14 -15 -14 -8 0 -15 7 -15 15
0 21 38 52 94 78 28 12 74 34 101 50 28 15 79 41 115 58 36 17 83 39 105 49
22 10 105 48 185 84 l144 66 38 -25 38 -25 -6 37 -6 38 64 24 c35 13 79 32 98
42 60 31 307 129 347 137 50 11 59 7 114 -49z m-4271 -69 c19 -16 78 -54 130
-86 52 -32 97 -60 100 -64 3 -3 22 -19 43 -35 37 -27 37 -29 20 -46 -10 -10
-65 -41 -122 -69 l-104 -52 -34 34 c-18 18 -35 44 -38 57 -2 13 -10 33 -18 45
-19 29 -46 130 -53 200 -7 58 -6 58 17 51 13 -4 40 -20 59 -35z m193 -499 c40
-22 97 -49 127 -61 110 -44 120 -49 120 -69 0 -11 5 -23 10 -26 16 -10 11 -44
-7 -53 -32 -16 -112 -14 -183 4 -56 15 -79 27 -121 66 -29 26 -62 48 -74 48
-24 0 -45 18 -45 39 0 15 77 91 92 91 5 0 41 -18 81 -39z m4435 -1409 c25 7
52 -14 76 -59 24 -47 20 -64 -24 -129 -74 -110 -177 -204 -221 -204 -25 0
-126 99 -133 130 -2 14 -7 62 -11 108 -5 76 -4 82 14 82 10 0 26 11 35 24 12
19 22 23 46 20 36 -6 110 23 110 43 0 8 10 18 23 22 17 7 26 4 43 -17 15 -18
27 -24 42 -20z m-318 -214 c0 -5 -7 -8 -15 -8 -15 0 -20 21 -8 33 7 7 23 -11
23 -25z m-2899 -125 c3 -5 34 -61 68 -125 112 -216 203 -349 374 -546 96 -109
185 -188 199 -174 4 4 -1 31 -12 60 -11 29 -20 63 -20 77 0 31 -18 42 -22 13
-3 -19 -7 -16 -26 23 -12 25 -22 54 -22 64 0 18 -19 64 -61 150 -10 22 -19 44
-19 49 0 14 -98 207 -141 274 -21 35 -37 68 -34 72 3 5 19 4 36 -2 24 -8 33
-8 39 2 8 13 132 12 161 -1 9 -5 36 -10 60 -13 24 -3 67 -12 94 -20 137 -40
124 -32 118 -76 -5 -38 -4 -40 26 -46 20 -4 36 -16 44 -33 8 -16 20 -25 30
-23 14 2 17 -5 17 -46 0 -38 5 -53 20 -63 17 -12 20 -26 21 -99 2 -105 5 -120
30 -120 13 0 19 -7 20 -22 1 -39 9 -71 20 -85 15 -17 4 -154 -13 -164 -7 -4
-20 -3 -29 2 -29 15 -54 10 -64 -13 -8 -19 -18 -23 -54 -23 -31 0 -47 5 -57
19 -13 18 -14 18 -38 -5 -29 -27 -34 -49 -11 -49 8 0 15 4 15 9 0 5 9 7 20 4
28 -7 25 -30 -9 -63 -26 -26 -32 -28 -62 -20 -19 6 -35 10 -37 10 -2 0 -1 4 3
9 10 16 -18 25 -82 26 -48 1 -66 6 -85 23 -35 33 -141 112 -149 112 -9 0 -30
60 -21 60 4 1 -5 7 -19 15 -15 8 -41 40 -59 72 -67 119 -187 293 -310 448 -70
88 -130 165 -134 172 -7 14 41 43 71 43 10 0 26 9 35 20 16 18 53 20 69 3z"/>
<path d="M7222 7151 c2 -7 7 -12 11 -12 12 1 9 15 -3 20 -7 2 -11 -2 -8 -8z"/>
<path d="M7326 7091 c-3 -5 1 -11 9 -15 15 -6 29 7 18 18 -9 9 -21 8 -27 -3z"/>
<path d="M7442 7041 c2 -7 7 -12 11 -12 12 1 9 15 -3 20 -7 2 -11 -2 -8 -8z"/>
<path d="M7660 6860 c0 -5 5 -10 10 -10 6 0 10 5 10 10 0 6 -4 10 -10 10 -5 0
-10 -4 -10 -10z"/>
<path d="M2070 5470 c0 -11 5 -20 10 -20 6 0 10 9 10 20 0 11 -4 20 -10 20 -5
0 -10 -9 -10 -20z"/>
<path d="M3350 2000 c0 -5 5 -10 11 -10 5 0 7 5 4 10 -3 6 -8 10 -11 10 -2 0
-4 -4 -4 -10z"/>
<path d="M2095 9200 c-3 -5 1 -10 10 -10 9 0 13 5 10 10 -3 6 -8 10 -10 10 -2
0 -7 -4 -10 -10z"/>
<path d="M2145 8990 c3 -5 8 -10 11 -10 2 0 4 5 4 10 0 6 -5 10 -11 10 -5 0
-7 -4 -4 -10z"/>
<path d="M820 6910 c-6 -12 -9 -24 -7 -27 3 -2 11 5 17 17 6 12 9 24 7 27 -3
2 -11 -5 -17 -17z"/>
<path d="M696 6651 c-4 -7 -5 -15 -2 -18 9 -9 19 4 14 18 -4 11 -6 11 -12 0z"/>
<path d="M7451 524 c0 -11 3 -14 6 -6 3 7 2 16 -1 19 -3 4 -6 -2 -5 -13z"/>
</g>
</svg>
